<?xml version="1.0" encoding="UTF-8" standalone="no"?>
<svg
   xmlns:dc="http://purl.org/dc/elements/1.1/"
   xmlns:cc="http://creativecommons.org/ns#"
   xmlns:rdf="http://www.w3.org/1999/02/22-rdf-syntax-ns#"
   xmlns:svg="http://www.w3.org/2000/svg"
   xmlns="http://www.w3.org/2000/svg"
   xmlns:sodipodi="http://sodipodi.sourceforge.net/DTD/sodipodi-0.dtd"
   xmlns:inkscape="http://www.inkscape.org/namespaces/inkscape"
   width="210mm"
   height="297mm"
   viewBox="0 0 210 297"
   version="1.1"
   id="svg1022"
   inkscape:export-filename="C:\Users\Giovanna Rocha\Documents\inkscape\desenho2.png"
   inkscape:export-xdpi="96"
   inkscape:export-ydpi="96"
   inkscape:version="1.0.2-2 (e86c870879, 2021-01-15)"
   sodipodi:docname="desenho2.svg">
  <defs
     id="defs1016" />
  <sodipodi:namedview
     id="base"
     pagecolor="#ffffff"
     bordercolor="#666666"
     borderopacity="1.0"
     inkscape:pageopacity="0.0"
     inkscape:pageshadow="2"
     inkscape:zoom="0.7"
     inkscape:cx="72.498452"
     inkscape:cy="559.98309"
     inkscape:document-units="mm"
     inkscape:current-layer="layer1"
     inkscape:document-rotation="0"
     showgrid="false"
     inkscape:window-width="1920"
     inkscape:window-height="1001"
     inkscape:window-x="-9"
     inkscape:window-y="-9"
     inkscape:window-maximized="1" />
  <metadata
     id="metadata1019">
    <rdf:RDF>
      <cc:Work
         rdf:about="">
        <dc:format>image/svg+xml</dc:format>
        <dc:type
           rdf:resource="http://purl.org/dc/dcmitype/StillImage" />
        <dc:title></dc:title>
      </cc:Work>
    </rdf:RDF>
  </metadata>
  <g
     inkscape:label="Layer 1"
     inkscape:groupmode="layer"
     id="layer1">
    <path
       style="fill:#9f858e;fill-opacity:1;stroke:#000000;stroke-width:0.36262px;stroke-linecap:butt;stroke-linejoin:miter;stroke-opacity:1"
       d="m 134.06305,119.06354 -5.62959,-6.90031 c 5.74029,-1.96529 1.20136,-6.30636 -3.43317,-9.02856 4.94255,-5.590718 22.53249,8.07785 9.02328,16.6849"
       id="path977"
       sodipodi:nodetypes="cccc"
       inkscape:label="chifre sulivan direito" />
    <path
       id="path974"
       style="fill:#87cdde;fill-opacity:1;stroke:#000000;stroke-width:2.20425;stroke-linecap:round;stroke-miterlimit:4;stroke-dasharray:none;stroke-opacity:0.61;paint-order:stroke fill markers"
       d="m 128.35639,172.88523 c 0.76748,2.0842 -0.63312,4.75159 -3.12834,5.95773 -2.49524,1.20616 -5.14023,0.49433 -5.90773,-1.58988 -0.7675,-2.08422 1.64236,-2.69912 4.13759,-3.90526 2.49526,-1.20616 4.13098,-2.5468 4.89848,-0.46259 z"
       sodipodi:nodetypes="sssss"
       inkscape:label="pé direito azul"
       inkscape:transform-center-x="-1.9656214"
       inkscape:transform-center-y="-0.0012265033" />
    <path
       style="fill:#9f858e;fill-opacity:1;stroke:#000000;stroke-width:0.359403px;stroke-linecap:butt;stroke-linejoin:miter;stroke-opacity:1"
       d="m 68.09216,119.529 5.200859,-7.1979 c -5.726756,-1.64547 -1.475982,-6.22869 2.944841,-9.20124 -5.114369,-5.308268 -21.736124,9.30443 -8.071388,17.15162"
       id="path979"
       sodipodi:nodetypes="cccc"
       inkscape:label="chifre sulivan esquerdo" />
    <path
       id="path972"
       style="fill:#87cdde;fill-opacity:1;stroke:#000000;stroke-width:2.22408;stroke-linecap:round;stroke-miterlimit:4;stroke-dasharray:none;stroke-opacity:0.61;paint-order:stroke fill markers"
       d="m 85.251084,178.73496 c -1.02416,1.98046 -3.912921,2.62975 -6.45223,1.45015 -2.539324,-1.17956 -3.767609,-3.74131 -2.743464,-5.72178 1.024143,-1.98048 3.072205,-0.47891 5.611512,0.70067 2.539342,1.1796 4.608325,1.59049 3.584182,3.57096 z"
       sodipodi:nodetypes="sssss"
       inkscape:label=" pé esquerdo azul" />
    <path
       id="path24"
       style="fill:#87cdde;fill-rule:evenodd;stroke:#000000;stroke-width:1.71155;stroke-miterlimit:4;stroke-dasharray:none;stroke-opacity:0.61"
       inkscape:label="corpo azul"
       d="m 140.80982,144.02301 c 0,22.48968 -17.61926,34.30117 -40.24012,34.30117 -22.62086,0 -39.162256,-11.81149 -39.162256,-34.30117 0,-22.48968 16.72104,-43.47261 39.341896,-43.47261 22.62085,0 40.06048,20.98293 40.06048,43.47261 z"
       sodipodi:nodetypes="sssss" />
    <ellipse
       style="fill:#2b1100;fill-opacity:1;stroke:#000000;stroke-width:1.71155;stroke-linecap:round;stroke-miterlimit:4;stroke-dasharray:none;stroke-opacity:0.61;paint-order:stroke fill markers"
       id="path981"
       cx="92.485756"
       cy="134.4847"
       rx="3.2335806"
       ry="3.4851451" />
    <ellipse
       style="fill:#2b1100;fill-opacity:1;stroke:#000000;stroke-width:1.71155;stroke-linecap:round;stroke-miterlimit:4;stroke-dasharray:none;stroke-opacity:0.61;paint-order:stroke fill markers"
       id="ellipse983"
       cx="108.29435"
       cy="134.37723"
       rx="3.2335806"
       ry="3.4851451" />
    <path
       id="rect987"
       style="fill:#37abc8;fill-opacity:1;stroke:#000000;stroke-width:1.78742;stroke-linecap:round;stroke-miterlimit:4;stroke-dasharray:none;stroke-opacity:0.61;paint-order:stroke fill markers"
       d="m 80.330254,124.78418 c 10.53037,-7.05705 14.11335,-8.08632 17.10515,-6.74514 l 0.93201,6.78754 c -6.31389,-1.777 -9.57849,0.951 -15.686473,5.20578 z"
       sodipodi:nodetypes="ccccc" />
    <path
       id="path992"
       style="fill:#37abc8;fill-opacity:1;stroke:#000000;stroke-width:1.8969;stroke-linecap:round;stroke-miterlimit:4;stroke-dasharray:none;stroke-opacity:0.61;paint-order:stroke fill markers"
       d="m 123.77353,123.73233 c -10.75758,-6.43202 -14.66238,-7.25422 -18.31515,-5.74913 l -2.27322,6.81258 c 7.4933,-2.06759 10.21392,1.57945 16.97076,4.29638 z"
       sodipodi:nodetypes="ccccc" />
    <path
       style="fill:#37abc8;fill-opacity:1;stroke:#000000;stroke-width:0.37657px;stroke-linecap:butt;stroke-linejoin:miter;stroke-opacity:1"
       d="m 95.411564,144.04774 c 3.89537,1.57703 7.605996,1.98372 10.939186,-8.1e-4 -1.09422,-2.21907 -1.17827,-4.45593 -5.58223,-6.6167 -3.372406,1.96548 -5.008526,4.19395 -5.356956,6.61751 z"
       id="path994"
       sodipodi:nodetypes="cccc" />
  </g>
</svg>
